<?xml version="1.0" encoding="UTF-8" standalone="no"?><!DOCTYPE svg PUBLIC "-//W3C//DTD SVG 1.1//EN" "http://www.w3.org/Graphics/SVG/1.1/DTD/svg11.dtd"><svg width="100%" height="100%" viewBox="0 0 16 16" version="1.1" xmlns="http://www.w3.org/2000/svg" xmlns:xlink="http://www.w3.org/1999/xlink" xml:space="preserve" xmlns:serif="http://www.serif.com/" style="fill-rule:evenodd;clip-rule:evenodd;stroke-linejoin:round;stroke-miterlimit:1.41421;"><path d="M0,0l0,8.651l11.819,0c1.955,0 3.541,-1.937 3.541,-4.326c0,-2.389 -1.586,-4.325 -3.541,-4.325l-11.819,0Z" style="fill:#5ad9a1;fill-rule:nonzero;"/><path d="M0,0l0,11.818c0,1.956 1.504,3.542 3.36,3.542c1.856,0 3.36,-1.586 3.36,-3.542l0,-11.818l-6.72,0Z" style="fill:#002ed1;fill-rule:nonzero;"/><path d="M6.72,1.527l0.695,2.138l2.247,0l-1.818,1.321l0.694,2.138l-1.818,-1.321l-1.818,1.321l0.694,-2.138l-1.818,-1.321l2.247,0l0.695,-2.138Z" style="fill:#ebebeb;"/></svg>